<?xml version="1.0" standalone="no"?>
<!DOCTYPE svg PUBLIC "-//W3C//DTD SVG 20010904//EN"
 "http://www.w3.org/TR/2001/REC-SVG-20010904/DTD/svg10.dtd">
<svg version="1.0" xmlns="http://www.w3.org/2000/svg"
 width="512.000000pt" height="512.000000pt" viewBox="0 0 512.000000 512.000000"
 preserveAspectRatio="xMidYMid meet">

<g transform="translate(0.000000,512.000000) scale(0.100000,-0.100000)"
fill="#000000" stroke="none">
<path d="M1464 4939 l-180 -180 -209 61 -208 62 -201 -201 c-110 -110 -198
-202 -196 -204 13 -11 1767 -1190 1775 -1193 6 -3 19 9 28 26 12 19 23 27 30
23 7 -5 32 -21 55 -37 l43 -30 -475 -475 -475 -476 -76 -132 c-42 -73 -79
-134 -83 -136 -4 -2 -237 28 -519 68 l-512 71 -128 -128 -128 -128 387 -388
387 -387 -48 -81 -49 -82 152 -151 c83 -83 156 -151 161 -151 6 0 44 20 85 45
l75 45 390 -390 391 -390 125 127 126 128 -48 350 c-27 193 -59 426 -72 518
l-23 168 25 18 c14 10 76 46 136 80 110 63 111 65 586 538 l475 474 30 -43
c16 -23 32 -48 37 -55 4 -7 -4 -18 -23 -30 -17 -9 -29 -22 -26 -28 3 -9 1182
-1762 1193 -1775 2 -2 94 86 204 196 l201 201 -62 208 -62 208 181 181 181
181 -215 215 -215 215 -64 -64 -64 -64 -11 40 c-6 23 -29 101 -51 174 l-39
134 174 175 175 175 -213 213 -212 212 -55 -55 c-30 -30 -57 -55 -61 -55 -4 0
-15 32 -25 70 -24 94 -25 95 -65 81 -18 -6 -33 -10 -35 -9 -1 2 -10 33 -20 71
l-18 67 355 358 c377 378 398 404 461 562 82 205 82 442 2 591 -55 100 -150
175 -269 211 -83 26 -244 30 -340 9 -84 -18 -208 -67 -290 -114 -72 -41 -96
-64 -1071 -1030 l-271 -268 -416 280 c-229 155 -418 281 -421 281 -12 0 -87
-123 -80 -130 5 -4 188 -128 407 -274 218 -147 395 -272 392 -277 -3 -5 -61
28 -128 73 -218 145 -1442 970 -1447 975 -2 2 30 38 72 80 l76 76 964 -283
c530 -156 967 -283 972 -284 13 -1 47 137 36 144 -6 4 -41 14 -80 24 -38 10
-70 21 -70 25 0 4 25 31 55 61 l55 55 -212 212 -213 213 -175 -175 -175 -174
-173 51 -173 51 63 64 63 63 -215 215 -215 215 -181 -181z m296 -144 l105
-105 -40 -40 -40 -39 -150 45 c-82 24 -156 47 -164 50 -10 3 15 35 79 99 52
52 97 95 100 95 3 0 52 -47 110 -105z m2870 18 c42 -13 69 -31 111 -72 71 -72
94 -137 93 -266 -2 -118 -24 -209 -81 -325 l-46 -95 -1236 -1238 -1236 -1238
-510 -296 c-280 -163 -555 -322 -610 -354 l-100 -59 -72 72 c-40 39 -71 74
-69 77 2 3 161 278 354 611 l351 605 1233 1231 c1343 1341 1266 1270 1443
1329 139 47 262 53 375 18z m-1804 -462 l-35 -35 -166 49 -166 48 93 94 93 93
107 -107 108 -108 -34 -34z m1587 -2431 c236 -802 294 -1008 284 -1018 -10
-10 -75 80 -321 445 l-308 457 27 22 27 21 -223 332 -224 331 215 215 c118
118 217 211 221 207 4 -4 140 -459 302 -1012z m95 633 c-51 -51 -93 -91 -94
-90 -1 1 -23 75 -50 165 l-47 163 33 34 34 35 108 -107 108 -108 -92 -92z
m-3591 -612 c150 -20 276 -40 279 -44 7 -6 -205 -377 -215 -377 -3 0 -65 58
-136 130 -115 115 -131 128 -145 115 -14 -13 -26 -5 -105 75 l-89 90 29 30
c26 27 34 30 70 25 22 -3 163 -23 312 -44z m3883 -186 l105 -105 -95 -95 c-52
-52 -96 -92 -99 -89 -3 3 -27 76 -52 162 l-47 157 36 38 c20 20 39 37 42 37 3
0 52 -47 110 -105z m-2876 -712 c3 -16 21 -147 41 -293 19 -146 38 -278 41
-295 5 -26 -12 -12 -125 100 -116 115 -129 131 -116 144 13 14 5 25 -72 104
-49 49 -83 91 -78 94 6 2 73 42 150 88 77 46 143 84 147 84 3 1 9 -11 12 -26z"/>
<path d="M4124 4632 c-47 -17 -95 -45 -137 -81 -17 -14 -15 -18 34 -67 l51
-52 50 31 c164 102 378 -19 378 -213 0 -54 -25 -127 -55 -160 -13 -14 -8 -22
39 -69 l54 -53 36 48 c92 127 101 303 21 439 -37 63 -126 140 -193 166 -78 30
-208 35 -278 11z"/>
<path d="M3505 4060 l-49 -50 49 -50 c27 -27 54 -50 60 -50 6 0 32 22 58 48
l47 48 -53 52 c-29 29 -55 52 -58 52 -2 0 -27 -22 -54 -50z"/>
<path d="M3332 3887 l-52 -53 55 -54 55 -55 52 53 53 52 -55 55 -55 55 -53
-53z"/>
<path d="M3157 3712 c-26 -26 -47 -52 -47 -58 0 -5 23 -32 50 -59 l50 -49 50
49 c28 27 50 54 50 60 0 10 -91 105 -101 105 -2 0 -26 -22 -52 -48z"/>
<path d="M3955 3610 l-50 -50 53 -53 52 -52 52 52 53 53 -50 50 c-27 27 -52
50 -55 50 -3 0 -28 -23 -55 -50z"/>
<path d="M2975 3530 l-49 -50 49 -50 c27 -27 54 -50 60 -50 6 0 32 22 58 48
l47 48 -53 52 c-29 29 -55 52 -58 52 -2 0 -27 -22 -54 -50z"/>
<path d="M3782 3437 l-52 -53 53 -52 53 -52 52 53 52 53 -53 52 -53 52 -52
-53z"/>
<path d="M2802 3357 l-52 -53 55 -54 55 -55 52 53 53 52 -55 55 -55 55 -53
-53z"/>
<path d="M3602 3257 l-52 -53 48 -47 c26 -26 52 -47 58 -47 5 0 32 23 59 50
l49 50 -49 50 c-27 28 -52 50 -55 50 -3 0 -29 -24 -58 -53z"/>
<path d="M2627 3182 c-26 -26 -47 -52 -47 -58 0 -5 23 -32 50 -59 l50 -49 50
49 c28 27 50 54 50 60 0 10 -91 105 -101 105 -2 0 -26 -22 -52 -48z"/>
<path d="M3425 3080 l-50 -50 53 -53 52 -52 52 52 53 53 -50 50 c-27 27 -52
50 -55 50 -3 0 -28 -23 -55 -50z"/>
<path d="M3252 2907 l-52 -53 53 -52 53 -52 52 53 52 53 -53 52 -53 52 -52
-53z"/>
<path d="M3072 2727 l-52 -53 48 -47 c26 -26 52 -47 58 -47 5 0 32 23 59 50
l49 50 -49 50 c-27 28 -52 50 -55 50 -3 0 -29 -24 -58 -53z"/>
<path d="M330 3935 l-265 -265 53 -52 52 -53 267 267 268 268 -50 50 c-27 27
-52 50 -55 50 -3 0 -124 -119 -270 -265z"/>
<path d="M732 3747 l-252 -252 53 -53 52 -52 253 253 252 252 -53 53 -52 52
-253 -253z"/>
<path d="M1092 3497 l-252 -252 53 -53 52 -52 255 255 255 255 -50 50 c-27 27
-52 50 -55 50 -3 0 -119 -114 -258 -253z"/>
<path d="M355 3370 l-50 -50 53 -53 52 -52 52 52 53 53 -50 50 c-27 27 -52 50
-55 50 -3 0 -28 -23 -55 -50z"/>
<path d="M175 3190 l-50 -50 53 -53 52 -52 52 52 53 53 -50 50 c-27 27 -52 50
-55 50 -3 0 -28 -23 -55 -50z"/>
<path d="M3392 1197 l-252 -252 53 -53 52 -52 255 255 255 255 -50 50 c-27 27
-52 50 -55 50 -3 0 -119 -114 -258 -253z"/>
<path d="M3657 812 l-257 -257 53 -53 52 -52 253 253 c138 139 252 257 252
262 0 6 -21 32 -48 58 l-47 47 -258 -258z"/>
<path d="M3887 462 c-125 -125 -227 -232 -227 -237 0 -6 21 -32 48 -58 l47
-47 235 235 235 235 -50 50 c-27 27 -52 50 -55 50 -3 0 -108 -102 -233 -228z"/>
<path d="M3275 430 l-50 -50 53 -53 52 -52 52 52 53 53 -50 50 c-27 27 -52 50
-55 50 -3 0 -28 -23 -55 -50z"/>
<path d="M3095 250 l-50 -50 53 -53 52 -52 52 52 53 53 -50 50 c-27 27 -52 50
-55 50 -3 0 -28 -23 -55 -50z"/>
</g>
</svg>
